<svg width="42" height="29" viewBox="0 0 42 29" fill="none" xmlns="http://www.w3.org/2000/svg">
<path d="M31.5924 18.4546C28.685 18.4546 26.3197 20.8199 26.3197 23.7273C26.3197 26.6348 28.685 29.0001 31.5924 29.0001C34.5004 29.0001 36.8652 26.6348 36.8652 23.7273C36.8652 20.8199 34.4999 18.4546 31.5924 18.4546ZM31.5924 26.3637C30.1385 26.3637 28.9561 25.1813 28.9561 23.7273C28.9561 22.2734 30.1385 21.091 31.5924 21.091C33.0464 21.091 34.2288 22.2734 34.2288 23.7273C34.2288 25.1813 33.0464 26.3637 31.5924 26.3637Z" fill="#FA5523"/>
<path d="M13.5773 18.4546C10.6699 18.4546 8.30457 20.8199 8.30457 23.7273C8.30457 26.6348 10.6699 29.0001 13.5773 29.0001C16.4848 29.0001 18.8501 26.6348 18.8501 23.7273C18.8501 20.8199 16.4848 18.4546 13.5773 18.4546ZM13.5773 26.3637C12.1234 26.3637 10.9409 25.1813 10.9409 23.7273C10.9409 22.2734 12.1234 21.091 13.5773 21.091C15.0308 21.091 16.2137 22.2734 16.2137 23.7273C16.2137 25.1813 15.0312 26.3637 13.5773 26.3637Z" fill="#FA5523"/>
<path d="M35.1433 3.36226C34.9192 2.91716 34.4636 2.63635 33.9653 2.63635H27.0228V5.27273H33.1524L36.7418 12.412L39.0978 11.2273L35.1433 3.36226Z" fill="#FA5523"/>
<path d="M27.6379 22.453H17.6637V25.0894H27.6379V22.453Z" fill="#FA5523"/>
<path d="M9.62264 22.453H5.05301C4.3249 22.453 3.73486 23.0431 3.73486 23.7711C3.73486 24.4993 4.32498 25.0893 5.05301 25.0893H9.62273C10.3508 25.0893 10.9409 24.4992 10.9409 23.7711C10.9409 23.043 10.3508 22.453 9.62264 22.453Z" fill="#FA5523"/>
<path d="M41.5535 14.3945L38.9607 11.0551C38.7115 10.7335 38.3271 10.5454 37.9197 10.5454H28.3409V1.31814C28.3409 0.590036 27.7508 0 27.0228 0H5.05301C4.3249 0 3.73486 0.590118 3.73486 1.31814C3.73486 2.04617 4.32498 2.63629 5.05301 2.63629H25.7045V11.8636C25.7045 12.5917 26.2946 13.1817 27.0227 13.1817H37.2742L39.1939 15.6546V22.4529H35.5469C34.8188 22.4529 34.2288 23.043 34.2288 23.7711C34.2288 24.4992 34.8189 25.0892 35.5469 25.0892H40.5121C41.2402 25.0892 41.8302 24.4991 41.8303 23.7711V15.203C41.8303 14.9104 41.7327 14.6257 41.5535 14.3945Z" fill="#FA5523"/>
<path d="M9.5349 15.7743H3.47122C2.74311 15.7743 2.15308 16.3644 2.15308 17.0924C2.15308 17.8205 2.74319 18.4106 3.47122 18.4106H9.53482C10.2629 18.4106 10.853 17.8205 10.853 17.0924C10.853 16.3644 10.2629 15.7743 9.5349 15.7743Z" fill="#FA5523"/>
<path d="M12.5667 10.5894H1.31815C0.590118 10.5894 0 11.1795 0 11.9076C0 12.6357 0.590118 13.2257 1.31815 13.2257H12.5667C13.2948 13.2257 13.8848 12.6356 13.8848 11.9076C13.8848 11.1796 13.2948 10.5894 12.5667 10.5894Z" fill="#FA5523"/>
<path d="M14.7197 5.40454H3.47122C2.74311 5.40454 2.15308 5.99466 2.15308 6.72269C2.15308 7.4508 2.74319 8.04083 3.47122 8.04083H14.7197C15.4478 8.04083 16.0379 7.45071 16.0379 6.72269C16.038 5.99466 15.4478 5.40454 14.7197 5.40454Z" fill="#FA5523"/>
</svg>
