<svg width="39" height="39" viewBox="0 0 39 39" fill="none" xmlns="http://www.w3.org/2000/svg">
<path d="M8.04401 24.9152L6.51183 37.1734C6.4305 37.8185 6.74313 38.4505 7.30451 38.7778C7.86628 39.1055 8.56889 39.0682 9.09218 38.6798L19.4997 30.9586L29.9063 38.6798C30.1932 38.8925 30.5328 39 30.8748 39C31.1549 39 31.4361 38.9274 31.6889 38.7814C32.2502 38.4561 32.5649 37.8288 32.4883 37.1846L30.9561 24.1547L38.5238 16.5858C38.9626 16.1474 39.1137 15.4964 38.9122 14.9096C38.7106 14.3225 38.1921 13.9015 37.5764 13.825L25.5276 12.3186L21.0084 1.02161C20.768 0.420164 20.1928 0.0190681 19.5453 0.00121513C18.8927 -0.0241757 18.3011 0.35034 18.0266 0.9379L12.7151 12.3194L1.40986 13.8265C0.811187 13.9063 0.30575 14.3125 0.0986559 14.8799C-0.108438 15.4468 0.0157389 16.0832 0.421993 16.5299L8.04401 24.9152ZM14.0267 15.4234C14.5758 15.35 15.0503 15.0017 15.2844 14.4994L19.3842 5.71376L22.8651 14.4157C23.0853 14.9652 23.5856 15.3512 24.1724 15.425L33.8753 16.6382L28.1 22.4134C27.7481 22.7653 27.5767 23.2585 27.6355 23.7524L28.8209 33.8274L20.4673 27.6304C20.1797 27.4166 19.8393 27.3103 19.4989 27.3103C19.1585 27.3103 18.8181 27.4166 18.5304 27.6304L10.2078 33.8056L11.3607 24.5764C11.4202 24.1059 11.2698 23.6322 10.9513 23.2819L4.91181 16.6382L14.0267 15.4234Z" fill="#FA5523"/>
<path d="M23.5621 23.5623C24.4592 23.5623 25.1872 22.8342 25.1872 21.9372V19.5069C25.1872 18.6098 24.4592 17.8818 23.5621 17.8818C22.6651 17.8818 21.9371 18.6098 21.9371 19.5069V21.9372C21.9371 22.835 22.6651 23.5623 23.5621 23.5623Z" fill="#FA5523"/>
<path d="M15.437 23.5624C16.334 23.5624 17.062 22.8344 17.062 21.9374V19.4999C17.062 18.6029 16.334 17.8749 15.437 17.8749C14.54 17.8749 13.812 18.6029 13.812 19.4999V21.9374C13.812 22.8352 14.54 23.5624 15.437 23.5624Z" fill="#FA5523"/>
</svg>
