<svg width="35" height="35" viewBox="0 0 35 35" fill="none" xmlns="http://www.w3.org/2000/svg">
<path d="M17.5 35C27.149 35 35 27.1497 35 17.5C35 15.8345 34.7675 14.1931 34.3072 12.6212C34.0804 11.8482 33.2732 11.4043 32.4981 11.6311C31.7244 11.8571 31.2819 12.6671 31.508 13.4401C31.8893 14.746 32.0833 16.1125 32.0833 17.5C32.0833 25.5411 25.5411 32.0833 17.5 32.0833C9.45887 32.0833 2.91667 25.5411 2.91667 17.5C2.91667 9.45887 9.45887 2.91667 17.5 2.91667C20.4224 2.91667 23.234 3.77116 25.6308 5.38722C26.2981 5.83761 27.2053 5.66066 27.6549 4.99344C28.105 4.32551 27.9294 3.41904 27.2615 2.969C24.3812 1.02681 21.0059 0 17.5 0C7.851 0 0 7.85029 0 17.5C0 27.1497 7.851 35 17.5 35Z" fill="#FA5523"/>
<path d="M32.5105 3.34409L17.4999 18.354L12.6976 13.5524C12.128 12.9831 11.2051 12.9831 10.6355 13.5524C10.0662 14.1221 10.0662 15.0449 10.6355 15.6146L16.4688 21.4479C16.754 21.7331 17.1264 21.8752 17.4999 21.8752C17.8734 21.8752 18.2458 21.7331 18.531 21.4479L34.5726 5.40627C35.142 4.83661 35.142 3.91375 34.5726 3.34409C34.003 2.77479 33.0801 2.77479 32.5105 3.34409Z" fill="#FA5523"/>
</svg>
